# xmcd CD database file
# Copyright (C) 1997 Ti Kan
#
# Track frame offsets:
#  150
#  18860
#  38865
#  59727
#  82575
#  107782
#  123540
#  145562
#  167220
#  185795
#  204755
#  221952
#  239522
#  261860
#  281297
#  298285
#  314375
#
# Disc length: 4517 seconds
#
# Revision: 1
# Processed by: cddbd v1.4b41PL1 Copyright (c) Steve Scherf et al.
# Submitted via: CDWizzard Release:4.32
#
DISCID=0211a311
DTITLE=Mariah Carey - Best songs
DYEAR=1900
DGENRE=
TTITLE0=Emotions
TTITLE1=And you don't remember
TTITLE2=If it's over
TTITLE3=You're so cold
TTITLE4=Till the end of time
TTITLE5=Vision of love
TTITLE6=There's got to be a way
TTITLE7=I don't wanna cry
TTITLE8=Someday
TTITLE9=Alone in love
TTITLE10=Love takes time
TTITLE11=Dreamlover
TTITLE12=Music box
TTITLE13=Now that I know
TTITLE14=Never forget you
TTITLE15=Without you
TTITLE16=Everything fades away
EXTD=
EXTT0=
EXTT1=
EXTT2=
EXTT3=
EXTT4=
EXTT5=
EXTT6=
EXTT7=
EXTT8=
EXTT9=
EXTT10=
EXTT11=
EXTT12=
EXTT13=
EXTT14=
EXTT15=
EXTT16=
PLAYORDER=
